<svg version="1.1" id="Layer_1" xmlns="http://www.w3.org/2000/svg" xmlns:xlink="http://www.w3.org/1999/xlink" x="0px" y="0px"
	 width="100%" viewBox="0 0 500 500"  xml:space="preserve">

<path fill="#0079C6" opacity="1.000000" stroke="none" 
	d="
M446.999603,274.000000 
	C446.999603,294.833038 446.480957,315.184418 447.197357,335.492157 
	C447.616028,347.360352 442.854340,354.561218 432.779633,360.166473 
	C408.676056,373.577057 384.971252,387.703003 361.010376,401.373535 
	C358.556458,402.773590 357.907837,404.282318 357.952728,406.861694 
	C358.086029,414.525940 357.689026,422.211823 358.127594,429.853210 
	C358.357086,433.851410 356.723877,435.877777 353.616302,437.644989 
	C337.489136,446.816406 321.385406,456.029541 305.313873,465.298157 
	C293.086761,472.349701 280.932465,479.527405 268.713654,486.593475 
	C266.758606,487.724091 264.634979,488.563141 262.000824,489.817169 
	C262.000824,487.778534 262.000854,486.344269 262.000824,484.909973 
	C262.000793,451.243774 262.077393,417.577179 261.897644,383.911926 
	C261.876709,379.984955 263.265015,377.950806 266.498779,376.102051 
	C289.438202,362.987122 312.278442,349.698944 335.173462,336.506195 
	C342.423431,332.328552 349.743896,328.273224 357.704834,323.782471 
	C357.704834,338.301361 357.704834,352.447601 357.704834,367.601410 
	C364.435791,363.867706 370.286194,360.722412 376.040314,357.409851 
	C387.991638,350.529663 399.959808,343.672577 411.744141,336.514679 
	C413.638306,335.364197 415.809387,332.725311 415.837341,330.745972 
	C416.131287,309.917114 416.017639,289.082489 416.002167,268.249451 
	C416.001709,267.622986 415.844330,266.996643 415.659607,265.622894 
	C403.872803,272.365723 392.458282,278.895569 380.319611,285.839661 
	C380.174988,283.202209 380.013306,281.621338 380.012634,280.040375 
	C379.998047,246.374176 380.042236,212.707855 379.934967,179.041992 
	C379.924896,175.880798 380.763672,174.225204 383.687622,172.554535 
	C412.921814,155.850723 442.013000,138.896774 471.160614,122.041176 
	C472.824890,121.078758 474.629272,120.358643 476.995300,119.225555 
	C476.995300,121.352501 476.995270,122.794212 476.995270,124.235916 
	C476.995300,157.902115 476.941010,191.568542 477.074066,225.234222 
	C477.088379,228.854492 476.030853,230.993790 472.792816,232.698929 
	C465.237305,236.677567 457.866028,241.006882 450.432404,245.215851 
	C448.007355,246.588913 446.755859,248.345261 446.896332,251.505859 
	C447.221558,258.824310 446.999664,266.167084 446.999603,274.000000 
z"/>
<path fill="#0079C6" opacity="1.000000" stroke="none" 
	d="
M85.938164,330.549957 
	C86.823997,332.633179 87.286934,334.989624 88.658096,335.789886 
	C106.227959,346.044312 123.927101,356.077271 141.597397,366.159485 
	C142.125458,366.460785 142.696350,366.687012 143.807098,367.213715 
	C143.807098,352.628632 143.807098,338.560730 143.807098,323.535583 
	C149.598145,326.755188 154.708435,329.502075 159.729095,332.404053 
	C180.488937,344.403290 201.219040,356.453979 221.966309,368.474945 
	C226.930893,371.351410 232.041199,374.001495 236.825241,377.149658 
	C238.320343,378.133514 239.858887,380.405518 239.867126,382.095245 
	C240.041168,417.747131 239.998795,453.400085 239.998795,490.120148 
	C233.225204,486.299469 226.997314,482.861267 220.840195,479.300659 
	C196.253098,465.082092 171.659500,450.873932 147.182144,436.468536 
	C145.627060,435.553314 144.216019,433.028442 144.142502,431.196014 
	C143.815445,423.044342 144.155472,414.866821 143.873703,406.711792 
	C143.814499,404.998260 142.582962,402.603088 141.159882,401.766174 
	C115.700821,386.793030 90.115562,372.034668 64.590820,357.172791 
	C58.413628,353.576080 54.994240,348.234741 54.996651,340.911621 
	C55.006409,311.251892 54.929661,281.591797 55.095264,251.932999 
	C55.114658,248.459717 53.965717,246.557724 51.071384,244.971725 
	C43.443100,240.791718 35.838814,236.549103 28.442669,231.979080 
	C26.830816,230.983139 25.158623,228.522293 25.148817,226.727188 
	C24.957705,191.736450 25.008005,156.744385 25.020876,121.752586 
	C25.021103,121.133537 25.168747,120.514526 25.353630,119.063240 
	C31.869026,122.740585 38.001949,126.128326 44.064514,129.637604 
	C62.534657,140.328964 80.969269,151.081696 99.435638,161.779572 
	C106.255501,165.730438 113.168335,169.523346 119.925819,173.576584 
	C120.934464,174.181595 121.906120,175.822922 121.909508,176.987701 
	C122.013596,212.800873 121.994545,248.614395 121.994545,285.975769 
	C109.691727,278.963684 98.223015,272.427002 85.937370,265.424683 
	C85.937370,287.593567 85.937370,308.846741 85.938164,330.549957 
z"/>
<path fill="#0079C6" opacity="1.000000" stroke="none" 
	d="
M181.586151,127.631104 
	C166.487549,136.370712 151.669617,144.852676 136.941864,153.488419 
	C134.011261,155.206787 131.785904,155.556824 128.543304,153.652649 
	C103.770012,139.104828 78.836937,124.829109 53.956089,110.464363 
	C48.292233,107.194382 42.638256,103.907288 36.223907,100.190063 
	C43.379436,95.950661 49.892910,92.018669 56.475048,88.205185 
	C79.347458,74.953651 102.316605,61.866699 125.076035,48.424366 
	C130.312378,45.331638 134.686508,44.971622 139.841232,48.352879 
	C146.154755,52.494247 152.785736,56.166908 159.411011,59.802471 
	C160.493530,60.396496 162.542175,60.254345 163.659103,59.610619 
	C188.130615,45.506870 212.675446,31.520138 236.880722,16.969519 
	C246.765152,11.027654 255.571289,11.210203 265.353119,17.070238 
	C289.574188,31.580395 314.073029,45.628052 338.545959,59.712589 
	C339.667297,60.357910 341.880829,60.027496 343.149689,59.343143 
	C350.802979,55.215363 358.375793,50.931252 365.871826,46.523052 
	C368.434479,45.016010 370.550140,45.031807 373.122467,46.524437 
	C389.320770,55.923679 405.612183,65.162216 421.829254,74.529343 
	C436.180969,82.819000 450.475952,91.206772 465.645325,100.046173 
	C461.978516,102.241737 458.738190,104.233887 455.449554,106.142853 
	C429.758026,121.056046 404.059174,135.956635 378.355469,150.848862 
	C376.374786,151.996429 374.442383,153.382980 372.298096,154.043640 
	C370.550598,154.582031 368.102570,154.930206 366.677063,154.116119 
	C346.720154,142.719070 326.902130,131.079239 307.014282,119.560684 
	C297.356873,113.967377 287.622345,108.507324 277.928589,102.976677 
	C276.562347,102.197174 275.229645,101.358978 273.101257,100.078636 
	C285.869080,92.676003 297.855560,85.726395 310.029358,78.668159 
	C291.079926,67.755623 272.488342,56.978680 253.777222,46.413395 
	C252.346603,45.605591 249.673096,45.589420 248.248444,46.393864 
	C229.530975,56.963024 210.934296,67.746132 191.925888,78.695297 
	C204.046707,85.706741 215.959167,92.597664 228.877914,100.070679 
	C212.828781,109.416313 197.363632,118.421890 181.586151,127.631104 
z"/>
<path fill="#0079C6" opacity="1.000000" stroke="none" 
	d="
M358.984192,242.000000 
	C358.984192,256.475525 358.984192,270.451050 358.984192,285.162903 
	C357.407166,284.692200 356.160400,284.562347 355.170380,283.989105 
	C330.728851,269.836426 306.322876,255.622467 281.889099,241.456421 
	C276.351318,238.245773 270.630737,235.336334 265.220398,231.929153 
	C263.728546,230.989655 262.144318,228.758774 262.136200,227.112869 
	C261.960571,191.488953 262.002533,155.863968 262.002533,119.559769 
	C263.497925,120.122093 264.687195,120.393326 265.697540,120.975197 
	C286.040192,132.690598 306.359558,144.446381 326.689667,156.183578 
	C336.071411,161.599945 345.351013,167.211060 354.917328,172.280228 
	C358.256134,174.049469 359.093201,176.028564 359.065002,179.559875 
	C358.900146,200.205490 358.984161,220.853073 358.984192,242.000000 
z"/>
<path fill="#0079C6" opacity="1.000000" stroke="none" 
	d="
M239.999207,164.000000 
	C239.999161,184.832657 239.896271,205.166306 240.092789,225.497070 
	C240.128647,229.206955 238.791565,231.045822 235.689133,232.822144 
	C208.610764,248.326172 181.641815,264.021179 154.618408,279.621429 
	C151.137619,281.630859 147.531326,283.422882 143.320007,285.669373 
	C143.186172,283.176575 143.027512,281.591522 143.026825,280.006409 
	C143.012497,246.507538 143.078979,213.008362 142.926590,179.510193 
	C142.909821,175.820419 144.185013,173.960983 147.306442,172.176727 
	C176.242188,155.636398 205.073761,138.913818 233.944519,122.259644 
	C235.624496,121.290535 237.381912,120.455666 239.999207,119.091309 
	C239.999207,134.422226 239.999207,148.961121 239.999207,164.000000 
z"/>
<path fill="#0079C6" opacity="1.000000" stroke="none" 
	d="
M260.021210,354.997955 
	C254.167007,359.917969 249.341721,359.807617 242.735565,355.665955 
	C225.229095,344.690247 207.002716,334.864288 189.084076,324.543945 
	C177.741898,318.011383 166.437805,311.412720 154.646927,304.571136 
	C164.946167,298.575989 174.698410,292.872009 184.476654,287.212982 
	C204.918060,275.382874 225.446915,263.700714 245.759171,251.653183 
	C249.722748,249.302322 252.531082,249.518539 256.351776,251.772934 
	C276.551544,263.691833 296.920105,275.324524 317.223663,287.067719 
	C327.010040,292.727936 336.782135,298.412903 347.383942,304.564362 
	C318.033600,321.550842 289.207855,338.233673 260.021210,354.997955 
z"/>
</svg>